<svg
            xmlns="http://www.w3.org/2000/svg"
            version="1.1"
            xlink="http://www.w3.org/1999/xlink"
            xmlns:svgjs="http://svgjs.com/svgjs"
            width="100%"
            height="100%"
            preserveAspectRatio="xMidYMid meet"
            viewBox="0 -2.1356827062390948e-7 283.6444396972656 147.00001525878906"
            overflow="visible"
          >
            <defs id="SvgjsDefs107061">
              <linearGradient
                id="SvgjsLinearGradientLgqVXneV3"
                gradientUnits="userSpaceOnUse"
                x1="-2.1864237886466706"
                y1="96.18642378864669"
                x2="90.18642378864669"
                y2="3.8135762113533174"
              >
                <stop
                  id="SvgjsStop107064"
                  stop-color="#39df7b"
                  offset="0.05"
                ></stop>
                <stop
                  id="SvgjsStop107065"
                  stop-color="#158441"
                  offset="0.95"
                ></stop>
              </linearGradient>
            </defs>
            <g
              id="SvgjsG107062"
              transform="scale(0.43691375461621645)"
              opacity="1"
            >
              <g
                id="SvgjsG107066"
                class="q4lEfPuok"
                transform="translate(196.48126416609648, -2.7151654589585323) scale(2.9253443642809267)"
                light-content="false"
                non-strokable="false"
                fill="url(#SvgjsLinearGradientLgqVXneV3)"
              >
                <path
                  d="M47 1.732l37.301 21.536a6 6 0 0 1 3 5.196v43.072a6 6 0 0 1-3 5.196L47 98.268a6 6 0 0 1-6 0L3.699 76.732a6 6 0 0 1-3-5.196V28.464a6 6 0 0 1 3-5.196L41 1.732a6 6 0 0 1 6 0z"
                ></path>
              </g>
              <g
                id="SvgjsG107067"
                class="wmrbIzm_Ac"
                transform="translate(228.95222886532096, 48.36846873640083) scale(1.917716665040076)"
                light-content="true"
                non-strokable="false"
                fill="#ffffff"
              >
                <path
                  d="M76.978 69.324c-25.586 0-46.313-20.74-46.313-46.314 0-8.422 2.417-16.211 6.348-23.01C15.686 6.152 0 25.586 0 48.889 0 77.111 22.876 100 51.099 100 74.402 100 93.848 84.302 100 62.988c-6.812 3.918-14.6 6.336-23.022 6.336z"
                ></path>
              </g>
              <g
                id="SvgjsG107068"
                class="text"
                transform="translate(324.6, 335.70084057636114) scale(1)"
                light-content="false"
                fill="#2c9173"
              >
                <path
                  d="M-317.2 -4.35L-317.2 0L-304.15 0L-304.15 -4.35L-305.4 -4.35C-306.1 -4.35 -306.61 -4.5 -306.93 -4.8C-307.24 -5.1 -307.4 -5.57 -307.4 -6.2L-307.4 -28L-303.5 -28C-302.8 -28 -302.3 -27.86 -302 -27.58C-301.7 -27.29 -301.55 -26.82 -301.55 -26.15L-301.55 -24.3L-296.8 -24.3L-296.8 -32.35L-324.6 -32.35L-324.6 -24.3L-319.85 -24.3L-319.85 -26.15C-319.85 -26.82 -319.7 -27.29 -319.4 -27.58C-319.1 -27.86 -318.6 -28 -317.9 -28L-314 -28L-314 -6.2C-314 -5.57 -314.15 -5.1 -314.45 -4.8C-314.75 -4.5 -315.25 -4.35 -315.95 -4.35Z M-289.6 -4.35L-289.6 0L-276.9 0L-276.9 -4.35L-277.9 -4.35C-278.53 -4.35 -279 -4.51 -279.3 -4.82C-279.6 -5.14 -279.75 -5.63 -279.75 -6.3L-279.75 -14.05L-267.9 -14.05L-267.9 -6.3C-267.9 -5.63 -268.05 -5.14 -268.35 -4.82C-268.65 -4.51 -269.12 -4.35 -269.75 -4.35L-270.8 -4.35L-270.8 0L-258.05 0L-258.05 -4.35L-259.35 -4.35C-260.05 -4.35 -260.55 -4.51 -260.85 -4.82C-261.15 -5.14 -261.3 -5.63 -261.3 -6.3L-261.3 -26.15C-261.3 -26.78 -261.15 -27.25 -260.85 -27.55C-260.55 -27.85 -260.05 -28 -259.35 -28L-258.05 -28L-258.05 -32.35L-270.8 -32.35L-270.8 -28L-269.75 -28C-269.08 -28 -268.61 -27.85 -268.32 -27.55C-268.04 -27.25 -267.9 -26.77 -267.9 -26.1L-267.9 -18.4L-279.75 -18.4L-279.75 -26.15C-279.75 -26.78 -279.61 -27.25 -279.32 -27.55C-279.04 -27.85 -278.57 -28 -277.9 -28L-276.9 -28L-276.9 -32.35L-289.6 -32.35L-289.6 -28L-288.3 -28C-287.6 -28 -287.11 -27.85 -286.82 -27.55C-286.54 -27.25 -286.4 -26.78 -286.4 -26.15L-286.4 -6.3C-286.4 -5.6 -286.54 -5.1 -286.82 -4.8C-287.11 -4.5 -287.6 -4.35 -288.3 -4.35Z M-250.35 -4.35L-250.35 0L-225.75 0L-225.75 -7.15L-231.75 -7.15L-231.75 -6.25C-231.75 -5.58 -231.91 -5.1 -232.23 -4.8C-232.54 -4.5 -233.03 -4.35 -233.7 -4.35L-240.5 -4.35L-240.5 -14L-232.8 -14L-232.8 -18.4L-240.5 -18.4L-240.5 -28L-233.7 -28C-232.4 -28 -231.75 -27.38 -231.75 -26.15L-231.75 -25.25L-225.75 -25.25L-225.75 -32.35L-250.35 -32.35L-250.35 -28L-249.05 -28C-248.35 -28 -247.85 -27.85 -247.55 -27.55C-247.25 -27.25 -247.1 -26.78 -247.1 -26.15L-247.1 -6.3C-247.1 -5.63 -247.25 -5.14 -247.55 -4.82C-247.85 -4.51 -248.35 -4.35 -249.05 -4.35Z M-196.8 -4.35L-196.8 0L-183.8 0L-183.8 -4.35L-185.15 -4.35C-186.45 -4.35 -187.1 -4.97 -187.1 -6.2L-187.1 -21.9L-181.05 -7.9L-176.55 -7.9L-170.55 -21.9L-170.55 -6.2C-170.55 -5.57 -170.7 -5.1 -171 -4.8C-171.3 -4.5 -171.77 -4.35 -172.4 -4.35L-173.75 -4.35L-173.75 0L-160.8 0L-160.8 -4.35L-162.15 -4.35C-162.78 -4.35 -163.25 -4.51 -163.55 -4.82C-163.85 -5.14 -164 -5.63 -164 -6.3L-164 -26.05C-164 -26.72 -163.85 -27.21 -163.55 -27.52C-163.25 -27.84 -162.78 -28 -162.15 -28L-160.8 -28L-160.8 -32.35L-170.75 -32.35L-178.75 -13.8L-186.8 -32.35L-196.8 -32.35L-196.8 -28L-195.5 -28C-194.8 -28 -194.3 -27.84 -194 -27.52C-193.7 -27.21 -193.55 -26.72 -193.55 -26.05L-193.55 -6.3C-193.55 -5.63 -193.7 -5.14 -194 -4.82C-194.3 -4.51 -194.8 -4.35 -195.5 -4.35Z M-151.35 -3.42C-148.85 -0.64 -145.02 0.75 -139.85 0.75C-134.72 0.75 -130.9 -0.64 -128.4 -3.42C-125.9 -6.21 -124.65 -10.42 -124.65 -16.05C-124.65 -21.75 -125.87 -26.02 -128.32 -28.85C-130.77 -31.68 -134.62 -33.1 -139.85 -33.1C-145.15 -33.1 -149.02 -31.68 -151.45 -28.85C-153.88 -26.02 -155.1 -21.75 -155.1 -16.05C-155.1 -10.42 -153.85 -6.21 -151.35 -3.42ZM-133.22 -6.55C-134.61 -4.65 -136.82 -3.7 -139.85 -3.7C-142.92 -3.7 -145.14 -4.64 -146.52 -6.52C-147.91 -8.41 -148.6 -11.58 -148.6 -16.05C-148.6 -19.12 -148.29 -21.58 -147.68 -23.42C-147.06 -25.27 -146.12 -26.61 -144.85 -27.42C-143.58 -28.24 -141.92 -28.65 -139.85 -28.65C-136.82 -28.65 -134.61 -27.68 -133.22 -25.75C-131.84 -23.82 -131.15 -20.58 -131.15 -16.05C-131.15 -11.62 -131.84 -8.45 -133.22 -6.55Z M-113.95 -3.42C-111.45 -0.64 -107.62 0.75 -102.45 0.75C-97.32 0.75 -93.5 -0.64 -91 -3.42C-88.5 -6.21 -87.25 -10.42 -87.25 -16.05C-87.25 -21.75 -88.47 -26.02 -90.93 -28.85C-93.37 -31.68 -97.22 -33.1 -102.45 -33.1C-107.75 -33.1 -111.62 -31.68 -114.05 -28.85C-116.48 -26.02 -117.7 -21.75 -117.7 -16.05C-117.7 -10.42 -116.45 -6.21 -113.95 -3.42ZM-95.82 -6.55C-97.21 -4.65 -99.42 -3.7 -102.45 -3.7C-105.52 -3.7 -107.74 -4.64 -109.13 -6.52C-110.51 -8.41 -111.2 -11.58 -111.2 -16.05C-111.2 -19.12 -110.89 -21.58 -110.27 -23.42C-109.66 -25.27 -108.72 -26.61 -107.45 -27.42C-106.18 -28.24 -104.52 -28.65 -102.45 -28.65C-99.42 -28.65 -97.21 -27.68 -95.82 -25.75C-94.44 -23.82 -93.75 -20.58 -93.75 -16.05C-93.75 -11.62 -94.44 -8.45 -95.82 -6.55Z M-81.3 -4.35L-81.3 0L-68.3 0L-68.3 -4.35L-69.6 -4.35C-70.27 -4.35 -70.74 -4.5 -71.03 -4.8C-71.31 -5.1 -71.45 -5.57 -71.45 -6.2L-71.45 -21.55L-57.6 0L-52.55 0L-52.55 -26.15C-52.55 -26.78 -52.4 -27.25 -52.1 -27.55C-51.8 -27.85 -51.33 -28 -50.7 -28L-49.35 -28L-49.35 -32.35L-62.4 -32.35L-62.4 -28L-61.05 -28C-59.75 -28 -59.1 -27.38 -59.1 -26.15L-59.1 -10.7L-73.05 -32.35L-81.3 -32.35L-81.3 -28L-80 -28C-79.3 -28 -78.8 -27.85 -78.5 -27.55C-78.2 -27.25 -78.05 -26.78 -78.05 -26.15L-78.05 -6.2C-78.05 -4.97 -78.7 -4.35 -80 -4.35Z M-20.4 -4.35L-20.4 0L-7.9 0L-7.9 -4.35L-9.1 -4.35C-9.73 -4.35 -10.17 -4.48 -10.4 -4.75C-10.63 -5.02 -10.75 -5.45 -10.75 -6.05L-10.75 -12.3L-5.55 -12.3L-1.35 -4.35L-3.35 -4.35L-3.35 0L8.35 0L8.35 -4.35L7.15 -4.35C6.45 -4.35 5.88 -4.47 5.45 -4.7C5.02 -4.93 4.63 -5.33 4.3 -5.9L0.4 -13.05C2.73 -13.68 4.53 -14.82 5.78 -16.45C7.03 -18.08 7.65 -20.1 7.65 -22.5C7.65 -25.7 6.67 -28.14 4.7 -29.83C2.73 -31.51 0 -32.35 -3.5 -32.35L-20.4 -32.35L-20.4 -28L-19.15 -28C-18.45 -28 -17.94 -27.85 -17.62 -27.55C-17.31 -27.25 -17.15 -26.78 -17.15 -26.15L-17.15 -6.2C-17.15 -4.97 -17.82 -4.35 -19.15 -4.35ZM-4.5 -16.65L-10.75 -16.65L-10.75 -28L-4.5 -28C-2.5 -28 -1.05 -27.58 -0.15 -26.72C0.75 -25.87 1.2 -24.47 1.2 -22.5C1.2 -18.6 -0.7 -16.65 -4.5 -16.65Z M16.05 -4.35L16.05 0L40.65 0L40.65 -7.15L34.65 -7.15L34.65 -6.25C34.65 -5.58 34.49 -5.1 34.18 -4.8C33.86 -4.5 33.37 -4.35 32.7 -4.35L25.9 -4.35L25.9 -14L33.6 -14L33.6 -18.4L25.9 -18.4L25.9 -28L32.7 -28C34 -28 34.65 -27.38 34.65 -26.15L34.65 -25.25L40.65 -25.25L40.65 -32.35L16.05 -32.35L16.05 -28L17.35 -28C18.05 -28 18.55 -27.85 18.85 -27.55C19.15 -27.25 19.3 -26.78 19.3 -26.15L19.3 -6.3C19.3 -5.63 19.15 -5.14 18.85 -4.82C18.55 -4.51 18.05 -4.35 17.35 -4.35Z M53.9 -0.3C56.07 0.4 58.4 0.75 60.9 0.75C63.4 0.75 65.54 0.36 67.33 -0.43C69.11 -1.21 70.46 -2.27 71.38 -3.62C72.29 -4.98 72.75 -6.52 72.75 -8.25C72.75 -10.15 72.36 -11.68 71.58 -12.85C70.79 -14.02 69.71 -14.98 68.33 -15.75C66.94 -16.52 64.9 -17.45 62.2 -18.55C60.63 -19.18 59.39 -19.73 58.48 -20.2C57.56 -20.67 56.77 -21.26 56.1 -21.97C55.43 -22.69 55.1 -23.53 55.1 -24.5C55.1 -27.27 56.88 -28.65 60.45 -28.65C62.52 -28.65 64.18 -28.28 65.45 -27.55L65.45 -24.35L72.15 -24.35L72.15 -29.3C68.98 -31.83 65.2 -33.1 60.8 -33.1C57.23 -33.1 54.31 -32.36 52.03 -30.87C49.74 -29.39 48.6 -27.2 48.6 -24.3C48.6 -22.6 49.01 -21.14 49.83 -19.92C50.64 -18.71 51.79 -17.65 53.28 -16.75C54.76 -15.85 56.73 -14.9 59.2 -13.9C61.03 -13.13 62.4 -12.52 63.3 -12.05C64.2 -11.58 64.92 -11.02 65.45 -10.37C65.98 -9.73 66.25 -8.92 66.25 -7.95C66.25 -5.12 64.48 -3.7 60.95 -3.7C58.58 -3.7 56.6 -4.15 55 -5.05L55 -8.5L48.35 -8.5L48.35 -3.15C49.88 -1.95 51.73 -1 53.9 -0.3Z M86.1 -4.35L86.1 0L99.15 0L99.15 -4.35L97.9 -4.35C97.2 -4.35 96.69 -4.5 96.38 -4.8C96.06 -5.1 95.9 -5.57 95.9 -6.2L95.9 -28L99.8 -28C100.5 -28 101 -27.86 101.3 -27.58C101.6 -27.29 101.75 -26.82 101.75 -26.15L101.75 -24.3L106.5 -24.3L106.5 -32.35L78.7 -32.35L78.7 -24.3L83.45 -24.3L83.45 -26.15C83.45 -26.82 83.6 -27.29 83.9 -27.58C84.2 -27.86 84.7 -28 85.4 -28L89.3 -28L89.3 -6.2C89.3 -5.57 89.15 -5.1 88.85 -4.8C88.55 -4.5 88.05 -4.35 87.35 -4.35Z M107.45 -4.35L107.45 0L119.95 0L119.95 -4.35L117.65 -4.35L119.5 -9.85L128.6 -9.85L130.4 -4.35L128.1 -4.35L128.1 0L140.6 0L140.6 -4.35L139.2 -4.35C138.37 -4.35 137.74 -4.48 137.33 -4.73C136.91 -4.98 136.58 -5.45 136.35 -6.15L127.25 -32.35L120.9 -32.35L111.65 -6.15C111.42 -5.45 111.1 -4.98 110.7 -4.73C110.3 -4.48 109.7 -4.35 108.9 -4.35ZM127.5 -13.45L120.6 -13.45L124.1 -23.8Z M150.25 -1.92C152.38 -0.14 155.58 0.75 159.85 0.75C164.08 0.75 167.28 -0.14 169.43 -1.92C171.58 -3.71 172.65 -6.15 172.65 -9.25L172.65 -26.2C172.65 -26.83 172.8 -27.29 173.1 -27.58C173.4 -27.86 173.88 -28 174.55 -28L175.65 -28L175.65 -32.35L163.25 -32.35L163.25 -28L164.35 -28C165.05 -28 165.54 -27.86 165.83 -27.58C166.11 -27.29 166.25 -26.83 166.25 -26.2L166.25 -8.95C166.25 -5.45 164.12 -3.7 159.85 -3.7C155.58 -3.7 153.45 -5.45 153.45 -8.95L153.45 -26.2C153.45 -26.83 153.6 -27.29 153.9 -27.58C154.2 -27.86 154.68 -28 155.35 -28L156.45 -28L156.45 -32.35L144.05 -32.35L144.05 -28L145.15 -28C145.85 -28 146.34 -27.86 146.63 -27.58C146.91 -27.29 147.05 -26.83 147.05 -26.2L147.05 -9.25C147.05 -6.15 148.12 -3.71 150.25 -1.92Z M182.85 -4.35L182.85 0L195.35 0L195.35 -4.35L194.15 -4.35C193.52 -4.35 193.08 -4.48 192.85 -4.75C192.62 -5.02 192.5 -5.45 192.5 -6.05L192.5 -12.3L197.7 -12.3L201.9 -4.35L199.9 -4.35L199.9 0L211.6 0L211.6 -4.35L210.4 -4.35C209.7 -4.35 209.13 -4.47 208.7 -4.7C208.27 -4.93 207.88 -5.33 207.55 -5.9L203.65 -13.05C205.98 -13.68 207.78 -14.82 209.03 -16.45C210.28 -18.08 210.9 -20.1 210.9 -22.5C210.9 -25.7 209.92 -28.14 207.95 -29.83C205.98 -31.51 203.25 -32.35 199.75 -32.35L182.85 -32.35L182.85 -28L184.1 -28C184.8 -28 185.31 -27.85 185.63 -27.55C185.94 -27.25 186.1 -26.78 186.1 -26.15L186.1 -6.2C186.1 -4.97 185.43 -4.35 184.1 -4.35ZM198.75 -16.65L192.5 -16.65L192.5 -28L198.75 -28C200.75 -28 202.2 -27.58 203.1 -26.72C204 -25.87 204.45 -24.47 204.45 -22.5C204.45 -18.6 202.55 -16.65 198.75 -16.65Z M218.05 -4.35L218.05 0L230.55 0L230.55 -4.35L228.25 -4.35L230.1 -9.85L239.2 -9.85L241 -4.35L238.7 -4.35L238.7 0L251.2 0L251.2 -4.35L249.8 -4.35C248.97 -4.35 248.34 -4.48 247.93 -4.73C247.51 -4.98 247.18 -5.45 246.95 -6.15L237.85 -32.35L231.5 -32.35L222.25 -6.15C222.02 -5.45 221.7 -4.98 221.3 -4.73C220.9 -4.48 220.3 -4.35 219.5 -4.35ZM238.1 -13.45L231.2 -13.45L234.7 -23.8Z M257.65 -4.35L257.65 0L270.65 0L270.65 -4.35L269.35 -4.35C268.68 -4.35 268.21 -4.5 267.93 -4.8C267.64 -5.1 267.5 -5.57 267.5 -6.2L267.5 -21.55L281.35 0L286.4 0L286.4 -26.15C286.4 -26.78 286.55 -27.25 286.85 -27.55C287.15 -27.85 287.62 -28 288.25 -28L289.6 -28L289.6 -32.35L276.55 -32.35L276.55 -28L277.9 -28C279.2 -28 279.85 -27.38 279.85 -26.15L279.85 -10.7L265.9 -32.35L257.65 -32.35L257.65 -28L258.95 -28C259.65 -28 260.15 -27.85 260.45 -27.55C260.75 -27.25 260.9 -26.78 260.9 -26.15L260.9 -6.2C260.9 -4.97 260.25 -4.35 258.95 -4.35Z M304.2 -4.35L304.2 0L317.25 0L317.25 -4.35L316 -4.35C315.3 -4.35 314.79 -4.5 314.48 -4.8C314.16 -5.1 314 -5.57 314 -6.2L314 -28L317.9 -28C318.6 -28 319.1 -27.86 319.4 -27.58C319.7 -27.29 319.85 -26.82 319.85 -26.15L319.85 -24.3L324.6 -24.3L324.6 -32.35L296.8 -32.35L296.8 -24.3L301.55 -24.3L301.55 -26.15C301.55 -26.82 301.7 -27.29 302 -27.58C302.3 -27.86 302.8 -28 303.5 -28L307.4 -28L307.4 -6.2C307.4 -5.57 307.25 -5.1 306.95 -4.8C306.65 -4.5 306.15 -4.35 305.45 -4.35Z"
                ></path>
              </g>
            </g>
          </svg>